<?xml version="1.0" encoding="UTF-8"?>
<svg width="163px" height="1286px" viewBox="0 0 163 1286" version="1.1" xmlns="http://www.w3.org/2000/svg" xmlns:xlink="http://www.w3.org/1999/xlink">
    <!-- Generator: Sketch 51.2 (57519) - http://www.bohemiancoding.com/sketch -->
    <title>body</title>
    <desc>Created with Sketch.</desc>
    <defs></defs>
    <g id="Page-1" stroke="none" stroke-width="1" fill="none" fill-rule="evenodd">
        <g id="frequency" transform="translate(-442.000000, -24.000000)">
            <g id="body" transform="translate(441.000000, 24.000000)">
                <rect id="leg-left" fill="#E20000" transform="translate(53.694975, 1199.984004) rotate(-360.000000) translate(-53.694975, -1199.984004) " x="41" y="1114" width="25.389949" height="171.968009" rx="8"></rect>
                <rect id="leg-right" fill="#E20000" transform="translate(110.694975, 1199.984004) rotate(-360.000000) translate(-110.694975, -1199.984004) " x="98" y="1114" width="25.389949" height="171.968009" rx="8"></rect>
                <rect id="arm-left" fill="#E20000" transform="translate(31.528170, 1034.045989) rotate(-345.000000) translate(-31.528170, -1034.045989) " x="20.8832062" y="951.95804" width="21.289927" height="164.175898" rx="8"></rect>
                <rect id="arm-right" fill="#E20000" transform="translate(133.528170, 1034.045989) scale(-1, 1) rotate(-345.000000) translate(-133.528170, -1034.045989) " x="122.883206" y="951.95804" width="21.289927" height="164.175898" rx="8"></rect>
                <rect id="trunk" fill="#E20000" transform="translate(82.000000, 1041.500000) scale(-1, 1) translate(-82.000000, -1041.500000) " x="41" y="957" width="82" height="169" rx="2"></rect>
                <g id="top" transform="translate(31.000000, 0.000000)">
                    <g id="rope" transform="translate(17.000000, 0.000000)" fill="#FFFFFF">
                        <rect id="Rectangle-4" x="25" y="0" width="17" height="880"></rect>
                        <path d="M26,856 L43.2354354,856 C47.6537134,856 51.2354354,859.581722 51.2354354,864 L51.2354354,867 C51.2354354,871.418278 47.6537134,875 43.2354354,875 L26,875 C21.581722,875 18,871.418278 18,867 L18,864 C18,859.581722 21.581722,856 26,856 Z" id="Rectangle-Copy" stroke="#222222" stroke-width="3" transform="translate(34.617718, 865.500000) rotate(-15.000000) translate(-34.617718, -865.500000) "></path>
                        <path d="M25,836 L42.2354354,836 C46.6537134,836 50.2354354,839.581722 50.2354354,844 L50.2354354,847 C50.2354354,851.418278 46.6537134,855 42.2354354,855 L25,855 C20.581722,855 17,851.418278 17,847 L17,844 C17,839.581722 20.581722,836 25,836 Z" id="Rectangle-Copy-2" stroke="#222222" stroke-width="3" transform="translate(33.617718, 845.500000) rotate(-15.000000) translate(-33.617718, -845.500000) "></path>
                        <path d="M23,816 L40.2354354,816 C44.6537134,816 48.2354354,819.581722 48.2354354,824 L48.2354354,827 C48.2354354,831.418278 44.6537134,835 40.2354354,835 L23,835 C18.581722,835 15,831.418278 15,827 L15,824 C15,819.581722 18.581722,816 23,816 Z" id="Rectangle-Copy-3" stroke="#222222" stroke-width="3" transform="translate(31.617718, 825.500000) rotate(-15.000000) translate(-31.617718, -825.500000) "></path>
                        <ellipse id="Oval-3" stroke="#222222" stroke-width="3" cx="34" cy="947.5" rx="34" ry="20.5"></ellipse>
                    </g>
                    <circle id="head" fill="#E20000" cx="49" cy="908" r="49"></circle>
                </g>
            </g>
        </g>
    </g>
</svg>