<?xml version="1.0" encoding="UTF-8"?>
<svg width="541px" height="363px" viewBox="0 0 541 363" version="1.1" xmlns="http://www.w3.org/2000/svg" xmlns:xlink="http://www.w3.org/1999/xlink">
    <!-- Generator: Sketch 51.2 (57519) - http://www.bohemiancoding.com/sketch -->
    <title>Gas</title>
    <desc>Created with Sketch.</desc>
    <defs></defs>
    <g id="Page-1" stroke="none" stroke-width="1" fill="none" fill-rule="evenodd">
        <g id="gas" transform="translate(-247.000000, -363.000000)">
            <g id="Gas" transform="translate(247.000000, 363.000000)">
                <g id="body" transform="translate(376.000000, 184.500000) rotate(-180.000000) translate(-376.000000, -184.500000) translate(210.000000, 0.000000)" fill="#E20000">
                    <rect id="arm-left" transform="translate(236.566253, 191.806241) rotate(-331.000000) translate(-236.566253, -191.806241) " x="224.066253" y="118.306241" width="25" height="147" rx="2"></rect>
                    <rect id="arm-right" transform="translate(97.204622, 196.536351) rotate(-218.000000) translate(-97.204622, -196.536351) " x="84.7046221" y="123.036351" width="25" height="147" rx="2"></rect>
                    <circle id="head" cx="171" cy="320" r="49"></circle>
                    <rect id="trunk" x="131" y="115" width="81" height="148.461573" rx="2"></rect>
                    <path d="M238.764089,-5.71886518 L274.489002,-9.91451391 C275.586032,-10.0433526 276.579795,-9.25847867 276.708633,-8.16144888 C276.726222,-8.01168934 276.726817,-7.8604211 276.710408,-7.71052773 L258.785462,156.033841 C258.688853,156.916366 258.02203,157.629575 257.147983,157.785225 L236.237056,161.509048 C235.149595,161.702704 234.111045,160.978131 233.91739,159.89067 C233.894547,159.762395 233.884293,159.632195 233.886775,159.501925 L236.997736,-3.77061769 C237.016782,-4.77024956 237.771101,-5.6022454 238.764089,-5.71886518 Z" id="leg-left" transform="translate(255.304349, 75.806003) rotate(-315.000000) translate(-255.304349, -75.806003) "></path>
                    <path d="M59.9974994,-5.71886518 L95.7224121,-9.91451391 C96.8194419,-10.0433526 97.8132047,-9.25847867 97.9420434,-8.16144888 C97.9596317,-8.01168934 97.9602271,-7.8604211 97.9438184,-7.71052773 L80.0188721,156.033841 C79.9222629,156.916366 79.2554394,157.629575 78.381393,157.785225 L57.4704661,161.509048 C56.3830051,161.702704 55.3444551,160.978131 55.1507998,159.89067 C55.1279565,159.762395 55.1177029,159.632195 55.120185,159.501925 L58.2311454,-3.77061769 C58.2501922,-4.77024956 59.0045107,-5.6022454 59.9974994,-5.71886518 Z" id="leg-right" transform="translate(76.537759, 75.806003) scale(-1, 1) rotate(-315.000000) translate(-76.537759, -75.806003) "></path>
                </g>
                <g id="charcole" transform="translate(44.000000, 239.000000)" fill="#FFFFFF">
                    <path d="M0,0 L108,0 L108,108 L0,108 L0,0 Z M13,13 L13,45 L25,45 L25,13 L13,13 Z M40,13 L40,45 L52,45 L52,13 L40,13 Z M66,13 L66,45 L78,45 L78,13 L66,13 Z" id="Combined-Shape"></path>
                </g>
                <g id="gas" transform="translate(0.000000, 29.000000)" fill="#FFFFFF">
                    <path d="M0,0 C27.8671875,5.10546875 41.8007813,21.6041667 41.8007812,49.4960938 C41.8007812,85.2657948 23.8974609,86.769701 23.8974609,123.742188 C23.8974609,141.020833 31.8632813,157.548177 47.7949219,173.324219 C18.0261375,166.161202 2.47896253,145.808451 1.15339704,112.265965 C0,83.0800781 19.4824219,77.0800781 19.4824219,49.4960938 C19.4824219,28.8098958 12.9882812,12.3111979 0,0 Z" id="gas-left"></path>
                    <path d="M66,0 C93.8671875,5.10546875 107.800781,21.6041667 107.800781,49.4960938 C107.800781,85.2657948 89.8974609,86.769701 89.8974609,123.742188 C89.8974609,141.020833 97.8632813,157.548177 113.794922,173.324219 C84.0261375,166.161202 68.4789625,145.808451 67.153397,112.265965 C66,83.0800781 85.4824219,77.0800781 85.4824219,49.4960938 C85.4824219,28.8098958 78.9882812,12.3111979 66,0 Z" id="gas-center"></path>
                    <path d="M127,0 C154.867188,5.10546875 168.800781,21.6041667 168.800781,49.4960938 C168.800781,85.2657948 150.897461,86.769701 150.897461,123.742188 C150.897461,141.020833 158.863281,157.548177 174.794922,173.324219 C145.026137,166.161202 129.478963,145.808451 128.153397,112.265965 C127,83.0800781 146.482422,77.0800781 146.482422,49.4960938 C146.482422,28.8098958 139.988281,12.3111979 127,0 Z" id="gas-right"></path>
                </g>
            </g>
        </g>
    </g>
</svg>