<?xml version="1.0" encoding="UTF-8"?>
<svg width="502px" height="505px" viewBox="0 0 502 505" version="1.1" xmlns="http://www.w3.org/2000/svg" xmlns:xlink="http://www.w3.org/1999/xlink">
    <!-- Generator: Sketch 51.2 (57519) - http://www.bohemiancoding.com/sketch -->
    <title>blood-01</title>
    <desc>Created with Sketch.</desc>
    <defs></defs>
    <g id="Page-1" stroke="none" stroke-width="1" fill="none" fill-rule="evenodd">
        <g id="Artboard" transform="translate(-282.000000, -323.000000)" fill="#E20000">
            <path d="M282.515625,323 L783.667969,323 C783.667969,461.319932 783.667969,555.394151 783.667969,605.222656 C783.667969,807.847656 780.7931,827.507813 749,827.507813 C677.464844,827.507813 711.390625,572 669.882813,572 C630.328125,572 663.9375,655.988281 605.464844,655.988281 C545.050461,655.988281 582.316406,520.59375 537.265625,520.59375 C473.542969,520.59375 553.308594,731.476563 473.542969,731.476563 C371.269531,731.476563 497.441406,402.015625 413.078125,402.015625 C364.96875,402.015625 404.046875,537.839844 347.371094,537.839844 C302.990885,537.839844 281.372396,466.226563 282.515625,323 Z" id="blood-01"></path>
        </g>
    </g>
</svg>