<?xml version="1.0" encoding="UTF-8"?>
<svg width="658px" height="741px" viewBox="0 0 658 741" version="1.1" xmlns="http://www.w3.org/2000/svg" xmlns:xlink="http://www.w3.org/1999/xlink">
    <!-- Generator: Sketch 51.2 (57519) - http://www.bohemiancoding.com/sketch -->
    <title>jumping</title>
    <desc>Created with Sketch.</desc>
    <defs></defs>
    <g id="Page-1" stroke="none" stroke-width="1" fill="none" fill-rule="evenodd">
        <g id="jump" transform="translate(-220.000000, -140.000000)">
            <g id="jumping" transform="translate(220.000000, 142.000000)">
                <g id="building" transform="translate(306.000000, 0.000000)">
                    <path d="M0,0 L350,0 L350,737 L0,737 L0,0 Z M43,41 L43,141 L143,141 L143,41 L43,41 Z M43,191 L43,291 L143,291 L143,191 L43,191 Z M43,341 L43,441 L143,441 L143,341 L43,341 Z M43,491 L43,591 L143,591 L143,491 L43,491 Z M43,641 L43,735.425727 L143,735.425727 L143,641 L43,641 Z M190,41 L190,141 L290,141 L290,41 L190,41 Z M190,191 L190,291 L290,291 L290,191 L190,191 Z M190,341 L190,441 L290,441 L290,341 L190,341 Z M190,491 L190,591 L290,591 L290,491 L190,491 Z M190,641 L190,735.628079 L290,735.628079 L290,641 L190,641 Z" id="Combined-Shape" stroke="#222222" stroke-width="3" fill="#FFFFFF"></path>
                    <g id="windows" transform="translate(43.000000, 41.000000)"></g>
                </g>
                <g id="body" transform="translate(118.000000, 353.000000) rotate(-180.000000) translate(-118.000000, -353.000000) translate(0.000000, 53.000000)" fill="#E20000">
                    <rect id="leg-left" x="136" y="410" width="32" height="190" rx="2"></rect>
                    <rect id="leg-right" x="63" y="410" width="32" height="190" rx="2"></rect>
                    <circle id="head" cx="115.5" cy="138.5" r="63.5"></circle>
                    <path d="M155.435163,20.8909153 L179.390079,1.2554547 C180.161974,0.622743995 181.282188,0.655968191 182.015228,1.33331346 C218.005076,34.5887291 236,74.3208131 236,120.529566 C236,166.198656 212.573599,211.43984 165.720797,256.253118 L165.720794,256.253115 C164.922567,257.016595 163.656553,256.988427 162.893073,256.1902 C162.537081,255.818007 162.338395,255.322828 162.338395,254.807797 L162.33842,213.93665 C162.33842,213.400779 162.553466,212.887324 162.935347,212.511393 C191.327297,184.561849 205.523272,153.90124 205.523272,120.529566 C205.523272,87.4709444 188.793936,55.2600485 155.335265,23.8968776 L155.335248,23.8968957 C154.529361,23.1414814 154.488446,21.8757968 155.24386,21.0699102 C155.303647,21.0061284 155.367552,20.9463352 155.435163,20.8909153 Z" id="arm-left"></path>
                    <path d="M0.662055886,20.848467 L22.3994706,1.28421545 C23.1950035,0.568214668 24.413223,0.605415298 25.1635854,1.36862291 C57.8939434,34.6592785 74.2591224,74.4173485 74.2591224,120.642833 C74.2591224,166.280594 52.9989984,211.491955 10.4787504,256.276916 L10.4787668,256.276932 C9.71822599,257.077981 8.45230753,257.110819 7.6512588,256.350278 C7.25352988,255.972662 7.02831712,255.448287 7.02831712,254.899851 L7.0283044,214.195185 C7.0283044,213.691562 7.21830463,213.206478 7.56035188,212.83683 C33.4821648,184.823303 46.4430712,154.091971 46.4430712,120.642833 C46.4430712,87.4874679 31.1507596,55.1829621 0.566136336,23.7293157 L0.566123362,23.7293283 C-0.203915828,22.9374094 -0.186178839,21.6711922 0.605740035,20.901153 C0.624171622,20.8832307 0.642947062,20.8656654 0.662055886,20.848467 Z" id="arm-right" transform="translate(37.129561, 128.835328) scale(-1, 1) translate(-37.129561, -128.835328) "></path>
                    <rect id="trunk" x="63" y="208" width="105" height="205" rx="2"></rect>
                </g>
            </g>
        </g>
    </g>
</svg>