<?xml version="1.0" encoding="UTF-8"?>
<svg width="101px" height="155px" viewBox="0 0 101 155" version="1.1" xmlns="http://www.w3.org/2000/svg" xmlns:xlink="http://www.w3.org/1999/xlink">
    <!-- Generator: Sketch 51.2 (57519) - http://www.bohemiancoding.com/sketch -->
    <title>KIA</title>
    <desc>Created with Sketch.</desc>
    <defs></defs>
    <g id="Page-1" stroke="none" stroke-width="1" fill="none" fill-rule="evenodd">
        <g id="war" transform="translate(-127.000000, -507.000000)">
            <g id="KIA" transform="translate(126.000000, 507.000000)">
                <g id="rifle" transform="translate(58.759149, 90.541255) rotate(-315.000000) translate(-58.759149, -90.541255) translate(46.259149, 24.541255)" fill="#FFFFFF">
                    <rect id="Rectangle-4" x="0" y="0" width="6.48223943" height="46.3043486"></rect>
                    <rect id="Rectangle-6" x="0" y="45.4306817" width="13.7747588" height="32.3256774"></rect>
                    <polygon id="Rectangle-7" points="0 77.756359 12.1541989 77.756359 24.3083979 131.92371 0 131.92371"></polygon>
                </g>
                <rect id="Rectangle" fill="#E20000" x="39" y="69" width="23" height="50" rx="2"></rect>
                <path d="M32.2652059,39.0634243 L33.5033307,39.4514187 C34.3163003,39.7061759 34.8786441,40.4479721 34.9043583,41.2995351 C35.2861086,53.9417635 35.2714088,62.5477121 34.8602591,67.1173809 C34.2206672,74.2260382 31.5466538,79.7376432 27.6810242,79.0364625 C22.8678505,78.1634082 18.0004002,73.1365385 14.4004099,67.7780752 C12.99228,65.6821216 11.615971,63.6706471 10.2714828,61.7436519 L10.2714817,61.7436526 C9.22541974,60.2443784 9.59282091,58.1809756 11.0920952,57.1349136 C12.3078108,56.286694 13.939229,56.350156 15.0853793,57.2902519 C15.0853793,57.2902519 15.0853793,57.2902519 15.0853793,57.2902519 C20.0463778,61.3593643 20.9628908,68.8237632 26.3459078,68.1628118 C28.4664231,67.9024453 29.5724578,58.8361742 29.6640117,40.9639985 L29.6639862,40.9639984 C29.6696515,39.8580872 30.5707623,38.9661616 31.6766734,38.9718269 C31.8763202,38.9728496 32.0746916,39.0037236 32.2652059,39.0634243 Z" id="Rectangle-2" fill="#E20000" transform="translate(22.427899, 59.034236) rotate(-263.000000) translate(-22.427899, -59.034236) "></path>
                <path d="M65.9515408,69.6567514 L67.4387597,70.1227957 C68.2729481,70.3842022 68.8407037,71.157097 68.8407037,72.0312844 L68.8407037,116.049703 C68.8407037,117.154273 67.9452732,118.049703 66.8407037,118.049703 L60.0912367,118.049703 C58.9866672,118.049703 58.0912367,117.154273 58.0912367,116.049703 C58.0912367,115.971183 58.0958608,115.89273 58.105085,115.814753 L63.3673331,71.3302901 C63.4970924,70.2333688 64.4915134,69.4493291 65.5884347,69.5790884 C65.7116165,69.5936601 65.8331757,69.6196598 65.9515408,69.6567514 Z" id="Rectangle-2-Copy" fill="#E20000" transform="translate(63.465970, 93.807375) scale(-1, 1) rotate(-360.000000) translate(-63.465970, -93.807375) "></path>
                <rect id="Rectangle-3" fill="#E20000" transform="translate(43.000000, 135.500000) rotate(-360.000000) translate(-43.000000, -135.500000) " x="39" y="116" width="8" height="39" rx="2"></rect>
                <rect id="Rectangle-3-Copy" fill="#E20000" x="54" y="116" width="8" height="39" rx="2"></rect>
                <circle id="head" fill="#E20000" cx="50.5" cy="48.5" r="16.5"></circle>
                <path d="M50.6087917,44.877855 C74.5809628,44.877855 71.0324233,56.1575153 71.0324233,44.877855 C71.0324233,33.5981947 61.8884519,24.4542234 50.6087917,24.4542234 C39.3291314,24.4542234 30.1851601,33.5981947 30.1851601,44.877855 C30.1851601,56.1575153 26.6366206,44.877855 50.6087917,44.877855 Z" id="helmet" fill="#E20000"></path>
                <path d="M50.5,20 C38.0735931,20 28,15.5228475 28,10 C28,4.4771525 38.0735931,0 50.5,0 C62.9264069,0 73,4.4771525 73,10 C73,15.5228475 62.9264069,20 50.5,20 Z M50.5,16 C57.9558441,16 64,13.3137085 64,10 C64,6.6862915 57.9558441,4 50.5,4 C43.0441559,4 37,6.6862915 37,10 C37,13.3137085 43.0441559,16 50.5,16 Z" id="circle" fill="#FFFFFF"></path>
            </g>
        </g>
    </g>
</svg>